# xmcd
#
# Track frame offsets: 
#        150
#        25822
#        45447
#        66895
#        98415
#        100462
#        115067
#        117362
#        142307
#        159530
#        173567
#        212397
#        233905
#        248252
#        264090
#
# Disc length: 3574 seconds
#
# Revision: 0
# Processed by: cddbd v1.4PL0 Copyright (c) Steve Scherf et al.
# Submitted via: ExactAudioCopy v0.90b2
#
DISCID=ba0df40f
DTITLE=The Board of Directors - Choke Chain Blues
DYEAR=1900
DGENRE=
TTITLE0=Seven Day Grind
TTITLE1=Can't, Can't, Can't
TTITLE2=Monekey's Lament
TTITLE3=Credit Card Blues
TTITLE4=Harp Stomp
TTITLE5=Meet Me At The Bayou
TTITLE6=Swamp Thang
TTITLE7=Been Stood Up
TTITLE8=Young Man's Worried Blues
TTITLE9=Fete Dieu
TTITLE10=Choke Chain Blues
TTITLE11=Four Door Sedan
TTITLE12=Tequila Tom
TTITLE13=Serious Business
TTITLE14=Eau De Toilette
EXTD=
EXTT0=
EXTT1=
EXTT2=
EXTT3=
EXTT4=
EXTT5=
EXTT6=
EXTT7=
EXTT8=
EXTT9=
EXTT10=
EXTT11=
EXTT12=
EXTT13=
EXTT14=
PLAYORDER=
